<svg enable-background="new 0 0 32 32" viewBox="0 0 32 32" xmlns="http://www.w3.org/2000/svg"><path d="m12 30.36c-1.47 0-2.852-.766-3.653-2.011-2.644-.109-4.707-2.243-4.707-4.849 0-.899.252-1.771.733-2.544-1.695-1.069-2.733-2.935-2.733-4.956s1.038-3.886 2.733-4.957c-.48-.772-.733-1.643-.733-2.543 0-2.63 2.101-4.779 4.712-4.858.803-1.24 2.182-2.002 3.648-2.002 2.404 0 4.36 1.956 4.36 4.36v4.64h8.64c.904 0 1.64-.736 1.64-1.64v-1.688c-.575-.158-1-.686-1-1.312 0-.75.61-1.36 1.36-1.36s1.36.61 1.36 1.36c0 .625-.425 1.153-1 1.312v1.688c0 1.301-1.059 2.36-2.36 2.36h-8.64v2.28h11.329c.158-.576.687-1 1.312-1 .75 0 1.36.61 1.36 1.36s-.61 1.36-1.36 1.36c-.625 0-1.153-.424-1.312-1h-11.329v3.28h11.329c.158-.575.687-1 1.312-1 .75 0 1.36.61 1.36 1.36s-.61 1.36-1.36 1.36c-.625 0-1.153-.425-1.312-1h-11.329v2.279h8.64c1.302 0 2.36 1.059 2.36 2.36v1.688c.575.158 1 .687 1 1.312 0 .75-.61 1.36-1.36 1.36s-1.36-.61-1.36-1.36c0-.625.425-1.153 1-1.312v-1.687c0-.904-.735-1.64-1.64-1.64h-8.64v4.64c0 2.404-1.956 4.36-4.36 4.36zm-3.279-2.732.143.186c.662 1.143 1.835 1.826 3.136 1.826 2.007 0 3.64-1.633 3.64-3.64v-20c0-2.007-1.633-3.64-3.64-3.64-1.301 0-2.474.683-3.137 1.826l-.116.179c-.254.504-.387 1.066-.387 1.635 0 .64.168 1.269.487 1.82l-.623.36c-.382-.659-.584-1.414-.584-2.18 0-.547.103-1.088.3-1.593-2.039.287-3.58 2.013-3.58 4.093 0 .876.283 1.722.817 2.446l.246.333-.364.197c-1.665.901-2.699 2.634-2.699 4.524 0 1.785.922 3.43 2.427 4.365.926-1.097 2.274-1.725 3.713-1.725v.721c-1.206 0-2.336.517-3.125 1.424l-.198.27c-.534.723-.817 1.569-.817 2.445 0 2.283 1.857 4.14 4.14 4.14zm18.279-2.268c-.353 0-.64.287-.64.64s.287.64.64.64.64-.287.64-.64-.287-.64-.64-.64zm2-8c-.353 0-.64.287-.64.64s.287.64.64.64.64-.287.64-.64-.287-.64-.64-.64zm0-4c-.353 0-.64.287-.64.64s.287.64.64.64.64-.287.64-.64-.287-.64-.64-.64zm-2-8c-.353 0-.64.287-.64.64s.287.64.64.64.64-.287.64-.64-.287-.64-.64-.64zm-15 23v-.72c.904 0 1.64-.735 1.64-1.64h.72c0 1.302-1.059 2.36-2.36 2.36zm-3-2c-1.577 0-2.86-1.283-2.86-2.86h.72c0 1.18.96 2.14 2.14 2.14zm3-2c-1.301 0-2.36-1.059-2.36-2.36s1.059-2.36 2.36-2.36v.721c-.904 0-1.64.735-1.64 1.64s.736 1.64 1.64 1.64zm-5.668-7.693c-.446-.446-.692-1.038-.692-1.667 0-1.39.97-2.36 2.36-2.36.641 0 1.218.238 1.669.689l-.51.509c-.312-.313-.713-.478-1.159-.478-.996 0-1.64.644-1.64 1.64 0 .437.171.848.48 1.158zm5.668-3.807v-.72c.904 0 1.64-.736 1.64-1.64s-.736-1.64-1.64-1.64v-.72c1.301 0 2.36 1.059 2.36 2.36s-1.059 2.36-2.36 2.36zm2.36-6.86h-.72c0-.904-.736-1.64-1.64-1.64s-1.64.736-1.64 1.64h-.72c0-1.301 1.059-2.36 2.36-2.36s2.36 1.059 2.36 2.36z"/><path d="m0 0h32v32h-32z" fill="none"/></svg>